<svg xmlns="http://www.w3.org/2000/svg" width="18" height="12" viewBox="0 0 18 12">
    <g fill="none" fill-rule="evenodd">
        <path d="M-3-6h24v24H-3z"/>
        <path fill="#FFF" fill-rule="nonzero" d="M16.593 12h-11c-.55 0-1-.45-1-1s.45-1 1-1h11c.55 0 1 .45 1 1s-.45 1-1 1zm0-5h-8c-.55 0-1-.45-1-1s.45-1 1-1h8c.55 0 1 .45 1 1s-.45 1-1 1zm1-6c0 .55-.45 1-1 1h-11c-.55 0-1-.45-1-1s.45-1 1-1h11c.55 0 1 .45 1 1zM.293 8.88L3.173 6 .292 3.12a.996.996 0 1 1 1.41-1.41l3.59 3.59c.39.39.39 1.02 0 1.41l-3.59 3.59a.996.996 0 0 1-1.41 0c-.38-.39-.39-1.03 0-1.42z"/>
        <path d="M21-6H-3v24h24z"/>
    </g>
</svg>
